# xmcd CD database file
#
# Track frame offsets:
#	150
#	9860
#	20648
#	29042
#	40282
#	50752
#	63146
#	75386
#	88321
#	98948
#	111703
#	121621
#	132366
#	144192
#	158154
#
# Disc length: 2285 seconds
#
# Revision: 13
# Processed by: cddbd v1.5.1PL2 Copyright (c) Steve Scherf et al.
# Submitted via: CDex 1.51
#
DISCID=c508eb0f
DTITLE=Various Artist - Classic Country 1960 - 1964 [CD1]
DYEAR=1900
DGENRE=Country
TTITLE0=George Jones - Race is On
TTITLE1=Hank Locklin - Please Help Me, I'm Falling
TTITLE2=Roger Miller - Dang Me
TTITLE3=Flloyd Cramer - Last Date
TTITLE4=Ferkin Husky - Wings of a Dove
TTITLE5=Patsy Cline - Crazy
TTITLE6=Brenda Lee - I'm Sorry
TTITLE7=Johnny Horton - North to Alaska
TTITLE8=Jim Reeves - He'll Have to Go
TTITLE9=Bill Anderson - Still
TTITLE10=Ned Miller - From a Jack to a King
TTITLE11=Leroy Van Dyke - Walk on By
TTITLE12=Johnny Cash - Ring of Fire
TTITLE13=Lefty Frizzell - Saginaw, Michigan
TTITLE14=Claude King - Wolverton Mountain
EXTD=
EXTT0=\n
EXTT1=
EXTT2=
EXTT3=
EXTT4=
EXTT5=
EXTT6=
EXTT7=
EXTT8=
EXTT9=
EXTT10=
EXTT11=
EXTT12=
EXTT13=
EXTT14=
PLAYORDER=
